<?xml version="1.0" encoding="UTF-8"?>
<svg xmlns="http://www.w3.org/2000/svg" xmlns:xlink="http://www.w3.org/1999/xlink" width="15pt" height="15pt" viewBox="0 0 15 15" version="1.1">
<g id="surface1">
<path style=" stroke:none;fill-rule:nonzero;fill:rgb(26.666667%,35.686275%,12.156863%);fill-opacity:1;" d="M 0 3.78125 L 3.78125 3.78125 L 3.78125 0 L 0 0 Z M 5.671875 15.121094 L 9.449219 15.121094 L 9.449219 11.339844 L 5.671875 11.339844 Z M 0 15.121094 L 3.78125 15.121094 L 3.78125 11.339844 L 0 11.339844 Z M 0 9.449219 L 3.78125 9.449219 L 3.78125 5.671875 L 0 5.671875 Z M 5.671875 9.449219 L 9.449219 9.449219 L 9.449219 5.671875 L 5.671875 5.671875 Z M 11.339844 0 L 11.339844 3.78125 L 15.121094 3.78125 L 15.121094 0 Z M 5.671875 3.78125 L 9.449219 3.78125 L 9.449219 0 L 5.671875 0 Z M 11.339844 9.449219 L 15.121094 9.449219 L 15.121094 5.671875 L 11.339844 5.671875 Z M 11.339844 15.121094 L 15.121094 15.121094 L 15.121094 11.339844 L 11.339844 11.339844 Z M 11.339844 15.121094 "/>
</g>
</svg>
